<svg viewBox="0 0 215 68" xmlns="http://www.w3.org/2000/svg">
    <defs>
        <linearGradient x1="50.048%" y1="2.541%" x2="50.048%" y2="99.503%" id="a">
            <stop stop-color="#FFFF79" offset="0%"/>
            <stop stop-color="#FED717" offset="100%"/>
        </linearGradient>
    </defs>
    <g fill-rule="nonzero" fill="none">
        <path d="M46.5 34.4c0 11.8-4.2 19.8-13.4 19.8-9.9 0-13.6-9-13.6-19.8 0-11.7 4.2-19.6 13.6-19.6 9.6 0 13.4 8.8 13.4 19.6zm22.6 1.5c-1.8-15.7-.9-18.7-7.6-20.6C55.4 4.4 43.8.4 33 .4 17.3.4 0 8.8 0 34.2c0 25.2 17.4 33.7 33 33.7 10.6 0 22-3.9 28.2-14.4 10.6.1 8.9-9.5 7.9-17.6zm7.2-7.9C77.7 18.5 83 14.5 89 14.5c7.3 0 11.4 4.4 12.4 13.5H76.3zm-.2 11.5h42.7v-2.9c0-6.3-.2-9.4-1.5-13.8l-10.9-8.3c1.1-1.6 2.9-3.9 4.2-5.4C105.2 4 98.1.5 89.2.5 80 .5 68.1 4.6 61.6 15.4c2.7 4.9 4.4 11.1 4.4 18.9 0 8.1-1.8 14.4-4.7 19.3C67.2 64 78.3 68 89.7 68c6.2 0 12.1-.8 17.1-2.8 0-2.1-.1-5.7.6-9.7.8-4.7 3.4-8.8 3.4-8.8-4.4 4-12 7.6-19.6 7.6-8.2.1-14.1-4-15.1-14.8z" fill="#FFF"/>
        <path d="M186.8 22.1h.2v18.7h-13.8c0-.1 13.6-18.7 13.6-18.7zM204 65.5V54.2h11V40.7h-11V1.2h-19l-29.7 40.4v12.6H187v11.3h17zm-43.1 0V52.1h-29.2c.3-2.9 6.8-7 15.2-12.3 12.5-7.8 13.5-14.2 13.5-20.7C160.4 7.3 152 0 137.2 0c-12.4 0-20.3 5.7-26.4 14l12.3 8.9c3.8-5.2 9.2-8.4 13.6-8.4 4.2 0 6.6 2.2 6.6 5.9 0 6.3-4 7.9-14.3 14.4-17.2 10.9-18.5 20.1-18.5 29.4v1.4l50.4-.1z" fill="url(#a)"/>
    </g>
</svg>
